<?xml version="1.0" standalone="no"?>
<!DOCTYPE svg PUBLIC "-//W3C//DTD SVG 20010904//EN"
 "http://www.w3.org/TR/2001/REC-SVG-20010904/DTD/svg10.dtd">
<svg version="1.0" xmlns="http://www.w3.org/2000/svg"
 width="142.000000pt" height="142.000000pt" viewBox="0 0 142.000000 142.000000"
 preserveAspectRatio="xMidYMid meet">
<metadata>
Created by potrace 1.16, written by Peter Selinger 2001-2019
</metadata>
<g transform="translate(0.000000,142.000000) scale(0.100000,-0.100000)"
fill="#000000" stroke="none">
<path d="M681 928 c-12 -40 -28 -89 -34 -108 l-13 -35 -112 -3 c-62 -1 -112
-6 -112 -10 1 -4 41 -35 90 -70 l89 -63 -10 -32 c-6 -18 -15 -41 -19 -52 -16
-35 -40 -128 -35 -133 2 -3 45 26 94 62 58 43 95 65 103 60 7 -4 48 -35 91
-67 43 -33 80 -58 82 -55 4 4 -21 100 -35 133 -5 11 -13 34 -19 52 l-10 32 89
63 c49 35 89 66 90 70 0 4 -50 9 -112 10 l-112 3 -24 75 c-13 41 -27 83 -33
92 -5 10 -9 25 -9 33 0 37 -19 9 -39 -57z"/>
</g>
</svg>
